<svg xmlns="http://www.w3.org/2000/svg" width="1200" height="760" viewBox="0 0 1200 760">
<style>
text{font-family:Arial,sans-serif;fill:#1f2933}
.title{font-size:26px;font-weight:700}
.meta{font-size:15px;fill:#4b5563}
.node-label{font-size:12px;text-anchor:middle}
.small{font-size:10px;fill:#374151}
</style>
<rect width="100%" height="100%" fill="#ffffff"/>
<text x="600.0" y="38" text-anchor="middle" class="title">Best Topology | Generation 57</text>
<text x="600.0" y="64" text-anchor="middle" class="meta">nodes=16 | connections=40 | enabled=38 | fitness=1.7500 | baseline_score=-4.6900</text>
<line x1="171.6" y1="623.6" x2="1028.4" y2="623.6" stroke="#b2182b" stroke-width="1.55" opacity="0.82"/>
<line x1="171.6" y1="623.6" x2="1028.4" y2="380.0" stroke="#9aa5b1" stroke-width="1.00" opacity="0.25" stroke-dasharray="6 6"/>
<line x1="171.6" y1="623.6" x2="1028.4" y2="136.4" stroke="#2166ac" stroke-width="2.76" opacity="0.82"/>
<line x1="171.6" y1="579.3" x2="1028.4" y2="623.6" stroke="#2166ac" stroke-width="1.95" opacity="0.82"/>
<line x1="171.6" y1="579.3" x2="1028.4" y2="380.0" stroke="#b2182b" stroke-width="1.90" opacity="0.82"/>
<line x1="171.6" y1="579.3" x2="1028.4" y2="136.4" stroke="#b2182b" stroke-width="3.61" opacity="0.82"/>
<line x1="171.6" y1="535.0" x2="1028.4" y2="623.6" stroke="#2166ac" stroke-width="1.44" opacity="0.82"/>
<line x1="171.6" y1="535.0" x2="1028.4" y2="380.0" stroke="#b2182b" stroke-width="2.74" opacity="0.82"/>
<line x1="171.6" y1="535.0" x2="1028.4" y2="136.4" stroke="#2166ac" stroke-width="1.81" opacity="0.82"/>
<line x1="171.6" y1="490.7" x2="1028.4" y2="623.6" stroke="#2166ac" stroke-width="2.07" opacity="0.82"/>
<line x1="171.6" y1="490.7" x2="1028.4" y2="380.0" stroke="#b2182b" stroke-width="3.14" opacity="0.82"/>
<line x1="171.6" y1="490.7" x2="1028.4" y2="136.4" stroke="#2166ac" stroke-width="3.13" opacity="0.82"/>
<line x1="171.6" y1="446.4" x2="1028.4" y2="623.6" stroke="#b2182b" stroke-width="3.82" opacity="0.82"/>
<line x1="171.6" y1="446.4" x2="1028.4" y2="380.0" stroke="#2166ac" stroke-width="1.50" opacity="0.82"/>
<line x1="171.6" y1="446.4" x2="1028.4" y2="136.4" stroke="#2166ac" stroke-width="3.57" opacity="0.82"/>
<line x1="171.6" y1="402.1" x2="1028.4" y2="623.6" stroke="#2166ac" stroke-width="1.39" opacity="0.82"/>
<line x1="171.6" y1="402.1" x2="1028.4" y2="380.0" stroke="#b2182b" stroke-width="4.04" opacity="0.82"/>
<line x1="171.6" y1="402.1" x2="1028.4" y2="136.4" stroke="#b2182b" stroke-width="5.00" opacity="0.82"/>
<line x1="171.6" y1="357.9" x2="1028.4" y2="623.6" stroke="#2166ac" stroke-width="1.41" opacity="0.82"/>
<line x1="171.6" y1="357.9" x2="1028.4" y2="380.0" stroke="#2166ac" stroke-width="1.06" opacity="0.82"/>
<line x1="171.6" y1="357.9" x2="1028.4" y2="136.4" stroke="#2166ac" stroke-width="2.28" opacity="0.82"/>
<line x1="171.6" y1="313.6" x2="1028.4" y2="623.6" stroke="#2166ac" stroke-width="1.88" opacity="0.82"/>
<line x1="171.6" y1="313.6" x2="1028.4" y2="380.0" stroke="#2166ac" stroke-width="3.19" opacity="0.82"/>
<line x1="171.6" y1="313.6" x2="1028.4" y2="136.4" stroke="#b2182b" stroke-width="2.11" opacity="0.82"/>
<line x1="171.6" y1="269.3" x2="1028.4" y2="623.6" stroke="#2166ac" stroke-width="2.53" opacity="0.82"/>
<line x1="171.6" y1="269.3" x2="1028.4" y2="380.0" stroke="#b2182b" stroke-width="1.65" opacity="0.82"/>
<line x1="171.6" y1="269.3" x2="1028.4" y2="136.4" stroke="#2166ac" stroke-width="3.63" opacity="0.82"/>
<line x1="171.6" y1="225.0" x2="1028.4" y2="623.6" stroke="#b2182b" stroke-width="4.43" opacity="0.82"/>
<line x1="171.6" y1="225.0" x2="1028.4" y2="380.0" stroke="#2166ac" stroke-width="1.94" opacity="0.82"/>
<line x1="171.6" y1="225.0" x2="1028.4" y2="136.4" stroke="#2166ac" stroke-width="1.80" opacity="0.82"/>
<line x1="171.6" y1="180.7" x2="1028.4" y2="623.6" stroke="#b2182b" stroke-width="2.03" opacity="0.82"/>
<line x1="171.6" y1="180.7" x2="1028.4" y2="380.0" stroke="#9aa5b1" stroke-width="1.00" opacity="0.25" stroke-dasharray="6 6"/>
<line x1="171.6" y1="180.7" x2="1028.4" y2="136.4" stroke="#2166ac" stroke-width="1.31" opacity="0.82"/>
<line x1="171.6" y1="136.4" x2="1028.4" y2="623.6" stroke="#2166ac" stroke-width="1.20" opacity="0.82"/>
<line x1="171.6" y1="136.4" x2="1028.4" y2="380.0" stroke="#2166ac" stroke-width="1.62" opacity="0.82"/>
<line x1="171.6" y1="136.4" x2="1028.4" y2="136.4" stroke="#2166ac" stroke-width="2.61" opacity="0.82"/>
<line x1="171.6" y1="180.7" x2="600.0" y2="380.0" stroke="#2166ac" stroke-width="1.36" opacity="0.82"/>
<line x1="600.0" y1="380.0" x2="1028.4" y2="380.0" stroke="#b2182b" stroke-width="1.45" opacity="0.82"/>
<line x1="171.6" y1="446.4" x2="600.0" y2="380.0" stroke="#2166ac" stroke-width="3.21" opacity="0.82"/>
<line x1="171.6" y1="136.4" x2="600.0" y2="380.0" stroke="#2166ac" stroke-width="3.86" opacity="0.82"/>
<circle cx="171.6" cy="623.6" r="34" fill="#dbeafe" stroke="#2563eb" stroke-width="2"/>
<text x="171.6" y="615.6" class="node-label">id 0</text>
<text x="171.6" y="630.6" class="node-label">input</text>
<circle cx="171.6" cy="579.3" r="34" fill="#dbeafe" stroke="#2563eb" stroke-width="2"/>
<text x="171.6" y="571.3" class="node-label">id 1</text>
<text x="171.6" y="586.3" class="node-label">input</text>
<circle cx="171.6" cy="535.0" r="34" fill="#dbeafe" stroke="#2563eb" stroke-width="2"/>
<text x="171.6" y="527.0" class="node-label">id 2</text>
<text x="171.6" y="542.0" class="node-label">input</text>
<circle cx="171.6" cy="490.7" r="34" fill="#dbeafe" stroke="#2563eb" stroke-width="2"/>
<text x="171.6" y="482.7" class="node-label">id 3</text>
<text x="171.6" y="497.7" class="node-label">input</text>
<circle cx="171.6" cy="446.4" r="34" fill="#dbeafe" stroke="#2563eb" stroke-width="2"/>
<text x="171.6" y="438.4" class="node-label">id 4</text>
<text x="171.6" y="453.4" class="node-label">input</text>
<circle cx="171.6" cy="402.1" r="34" fill="#dbeafe" stroke="#2563eb" stroke-width="2"/>
<text x="171.6" y="394.1" class="node-label">id 5</text>
<text x="171.6" y="409.1" class="node-label">input</text>
<circle cx="171.6" cy="357.9" r="34" fill="#dbeafe" stroke="#2563eb" stroke-width="2"/>
<text x="171.6" y="349.9" class="node-label">id 6</text>
<text x="171.6" y="364.9" class="node-label">input</text>
<circle cx="171.6" cy="313.6" r="34" fill="#dbeafe" stroke="#2563eb" stroke-width="2"/>
<text x="171.6" y="305.6" class="node-label">id 7</text>
<text x="171.6" y="320.6" class="node-label">input</text>
<circle cx="171.6" cy="269.3" r="34" fill="#dbeafe" stroke="#2563eb" stroke-width="2"/>
<text x="171.6" y="261.3" class="node-label">id 8</text>
<text x="171.6" y="276.3" class="node-label">input</text>
<circle cx="171.6" cy="225.0" r="34" fill="#dbeafe" stroke="#2563eb" stroke-width="2"/>
<text x="171.6" y="217.0" class="node-label">id 9</text>
<text x="171.6" y="232.0" class="node-label">input</text>
<circle cx="171.6" cy="180.7" r="34" fill="#dbeafe" stroke="#2563eb" stroke-width="2"/>
<text x="171.6" y="172.7" class="node-label">id 10</text>
<text x="171.6" y="187.7" class="node-label">input</text>
<circle cx="171.6" cy="136.4" r="34" fill="#dbeafe" stroke="#2563eb" stroke-width="2"/>
<text x="171.6" y="128.4" class="node-label">id 11</text>
<text x="171.6" y="143.4" class="node-label">input</text>
<circle cx="600.0" cy="380.0" r="34" fill="#fef3c7" stroke="#d97706" stroke-width="2"/>
<text x="600.0" y="372.0" class="node-label">id 31</text>
<text x="600.0" y="387.0" class="node-label">hidden</text>
<text x="600.0" y="402.0" class="node-label small">tanh</text>
<circle cx="1028.4" cy="623.6" r="39" fill="#dcfce7" stroke="#16a34a" stroke-width="2"/>
<text x="1028.4" y="615.6" class="node-label">id 12</text>
<text x="1028.4" y="630.6" class="node-label">forward</text>
<text x="1028.4" y="645.6" class="node-label small">tanh</text>
<circle cx="1028.4" cy="380.0" r="39" fill="#dcfce7" stroke="#16a34a" stroke-width="2"/>
<text x="1028.4" y="372.0" class="node-label">id 13</text>
<text x="1028.4" y="387.0" class="node-label">backward</text>
<text x="1028.4" y="402.0" class="node-label small">tanh</text>
<circle cx="1028.4" cy="136.4" r="39" fill="#dcfce7" stroke="#16a34a" stroke-width="2"/>
<text x="1028.4" y="128.4" class="node-label">id 14</text>
<text x="1028.4" y="143.4" class="node-label">jump</text>
<text x="1028.4" y="158.4" class="node-label small">tanh</text>
<line x1="90" y1="726" x2="150" y2="726" stroke="#2166ac" stroke-width="4"/>
<text x="160" y="731" class="meta">positive weight</text>
<line x1="330" y1="726" x2="390" y2="726" stroke="#b2182b" stroke-width="4"/>
<text x="400" y="731" class="meta">negative weight</text>
<line x1="570" y1="726" x2="630" y2="726" stroke="#9aa5b1" stroke-width="2" stroke-dasharray="6 6" opacity="0.5"/>
<text x="640" y="731" class="meta">disabled connection</text>
</svg>