<svg xmlns="http://www.w3.org/2000/svg" width="1200" height="760" viewBox="0 0 1200 760">
<style>
text{font-family:Arial,sans-serif;fill:#1f2933}
.title{font-size:26px;font-weight:700}
.meta{font-size:15px;fill:#4b5563}
.node-label{font-size:12px;text-anchor:middle}
.small{font-size:10px;fill:#374151}
</style>
<rect width="100%" height="100%" fill="#ffffff"/>
<text x="600.0" y="38" text-anchor="middle" class="title">Best Topology | Generation 0</text>
<text x="600.0" y="64" text-anchor="middle" class="meta">nodes=15 | connections=36 | enabled=36 | fitness=6.0000 | baseline_score=0.0000</text>
<line x1="171.6" y1="623.6" x2="1028.4" y2="623.6" stroke="#2166ac" stroke-width="2.68" opacity="0.82"/>
<line x1="171.6" y1="623.6" x2="1028.4" y2="380.0" stroke="#2166ac" stroke-width="4.77" opacity="0.82"/>
<line x1="171.6" y1="623.6" x2="1028.4" y2="136.4" stroke="#2166ac" stroke-width="4.18" opacity="0.82"/>
<line x1="171.6" y1="579.3" x2="1028.4" y2="623.6" stroke="#b2182b" stroke-width="4.02" opacity="0.82"/>
<line x1="171.6" y1="579.3" x2="1028.4" y2="380.0" stroke="#2166ac" stroke-width="1.29" opacity="0.82"/>
<line x1="171.6" y1="579.3" x2="1028.4" y2="136.4" stroke="#b2182b" stroke-width="1.31" opacity="0.82"/>
<line x1="171.6" y1="535.0" x2="1028.4" y2="623.6" stroke="#2166ac" stroke-width="2.94" opacity="0.82"/>
<line x1="171.6" y1="535.0" x2="1028.4" y2="380.0" stroke="#2166ac" stroke-width="1.20" opacity="0.82"/>
<line x1="171.6" y1="535.0" x2="1028.4" y2="136.4" stroke="#2166ac" stroke-width="2.18" opacity="0.82"/>
<line x1="171.6" y1="490.7" x2="1028.4" y2="623.6" stroke="#b2182b" stroke-width="2.68" opacity="0.82"/>
<line x1="171.6" y1="490.7" x2="1028.4" y2="380.0" stroke="#2166ac" stroke-width="4.01" opacity="0.82"/>
<line x1="171.6" y1="490.7" x2="1028.4" y2="136.4" stroke="#b2182b" stroke-width="4.18" opacity="0.82"/>
<line x1="171.6" y1="446.4" x2="1028.4" y2="623.6" stroke="#2166ac" stroke-width="3.58" opacity="0.82"/>
<line x1="171.6" y1="446.4" x2="1028.4" y2="380.0" stroke="#b2182b" stroke-width="4.76" opacity="0.82"/>
<line x1="171.6" y1="446.4" x2="1028.4" y2="136.4" stroke="#b2182b" stroke-width="4.79" opacity="0.82"/>
<line x1="171.6" y1="402.1" x2="1028.4" y2="623.6" stroke="#2166ac" stroke-width="4.46" opacity="0.82"/>
<line x1="171.6" y1="402.1" x2="1028.4" y2="380.0" stroke="#2166ac" stroke-width="4.07" opacity="0.82"/>
<line x1="171.6" y1="402.1" x2="1028.4" y2="136.4" stroke="#b2182b" stroke-width="2.06" opacity="0.82"/>
<line x1="171.6" y1="357.9" x2="1028.4" y2="623.6" stroke="#2166ac" stroke-width="2.55" opacity="0.82"/>
<line x1="171.6" y1="357.9" x2="1028.4" y2="380.0" stroke="#b2182b" stroke-width="5.00" opacity="0.82"/>
<line x1="171.6" y1="357.9" x2="1028.4" y2="136.4" stroke="#b2182b" stroke-width="2.14" opacity="0.82"/>
<line x1="171.6" y1="313.6" x2="1028.4" y2="623.6" stroke="#2166ac" stroke-width="3.35" opacity="0.82"/>
<line x1="171.6" y1="313.6" x2="1028.4" y2="380.0" stroke="#b2182b" stroke-width="3.06" opacity="0.82"/>
<line x1="171.6" y1="313.6" x2="1028.4" y2="136.4" stroke="#2166ac" stroke-width="1.94" opacity="0.82"/>
<line x1="171.6" y1="269.3" x2="1028.4" y2="623.6" stroke="#2166ac" stroke-width="2.87" opacity="0.82"/>
<line x1="171.6" y1="269.3" x2="1028.4" y2="380.0" stroke="#b2182b" stroke-width="3.82" opacity="0.82"/>
<line x1="171.6" y1="269.3" x2="1028.4" y2="136.4" stroke="#b2182b" stroke-width="2.60" opacity="0.82"/>
<line x1="171.6" y1="225.0" x2="1028.4" y2="623.6" stroke="#2166ac" stroke-width="2.72" opacity="0.82"/>
<line x1="171.6" y1="225.0" x2="1028.4" y2="380.0" stroke="#2166ac" stroke-width="4.84" opacity="0.82"/>
<line x1="171.6" y1="225.0" x2="1028.4" y2="136.4" stroke="#2166ac" stroke-width="2.89" opacity="0.82"/>
<line x1="171.6" y1="180.7" x2="1028.4" y2="623.6" stroke="#2166ac" stroke-width="2.94" opacity="0.82"/>
<line x1="171.6" y1="180.7" x2="1028.4" y2="380.0" stroke="#2166ac" stroke-width="3.81" opacity="0.82"/>
<line x1="171.6" y1="180.7" x2="1028.4" y2="136.4" stroke="#b2182b" stroke-width="3.45" opacity="0.82"/>
<line x1="171.6" y1="136.4" x2="1028.4" y2="623.6" stroke="#2166ac" stroke-width="1.81" opacity="0.82"/>
<line x1="171.6" y1="136.4" x2="1028.4" y2="380.0" stroke="#b2182b" stroke-width="1.76" opacity="0.82"/>
<line x1="171.6" y1="136.4" x2="1028.4" y2="136.4" stroke="#2166ac" stroke-width="2.24" opacity="0.82"/>
<circle cx="171.6" cy="623.6" r="34" fill="#dbeafe" stroke="#2563eb" stroke-width="2"/>
<text x="171.6" y="615.6" class="node-label">id 0</text>
<text x="171.6" y="630.6" class="node-label">input</text>
<circle cx="171.6" cy="579.3" r="34" fill="#dbeafe" stroke="#2563eb" stroke-width="2"/>
<text x="171.6" y="571.3" class="node-label">id 1</text>
<text x="171.6" y="586.3" class="node-label">input</text>
<circle cx="171.6" cy="535.0" r="34" fill="#dbeafe" stroke="#2563eb" stroke-width="2"/>
<text x="171.6" y="527.0" class="node-label">id 2</text>
<text x="171.6" y="542.0" class="node-label">input</text>
<circle cx="171.6" cy="490.7" r="34" fill="#dbeafe" stroke="#2563eb" stroke-width="2"/>
<text x="171.6" y="482.7" class="node-label">id 3</text>
<text x="171.6" y="497.7" class="node-label">input</text>
<circle cx="171.6" cy="446.4" r="34" fill="#dbeafe" stroke="#2563eb" stroke-width="2"/>
<text x="171.6" y="438.4" class="node-label">id 4</text>
<text x="171.6" y="453.4" class="node-label">input</text>
<circle cx="171.6" cy="402.1" r="34" fill="#dbeafe" stroke="#2563eb" stroke-width="2"/>
<text x="171.6" y="394.1" class="node-label">id 5</text>
<text x="171.6" y="409.1" class="node-label">input</text>
<circle cx="171.6" cy="357.9" r="34" fill="#dbeafe" stroke="#2563eb" stroke-width="2"/>
<text x="171.6" y="349.9" class="node-label">id 6</text>
<text x="171.6" y="364.9" class="node-label">input</text>
<circle cx="171.6" cy="313.6" r="34" fill="#dbeafe" stroke="#2563eb" stroke-width="2"/>
<text x="171.6" y="305.6" class="node-label">id 7</text>
<text x="171.6" y="320.6" class="node-label">input</text>
<circle cx="171.6" cy="269.3" r="34" fill="#dbeafe" stroke="#2563eb" stroke-width="2"/>
<text x="171.6" y="261.3" class="node-label">id 8</text>
<text x="171.6" y="276.3" class="node-label">input</text>
<circle cx="171.6" cy="225.0" r="34" fill="#dbeafe" stroke="#2563eb" stroke-width="2"/>
<text x="171.6" y="217.0" class="node-label">id 9</text>
<text x="171.6" y="232.0" class="node-label">input</text>
<circle cx="171.6" cy="180.7" r="34" fill="#dbeafe" stroke="#2563eb" stroke-width="2"/>
<text x="171.6" y="172.7" class="node-label">id 10</text>
<text x="171.6" y="187.7" class="node-label">input</text>
<circle cx="171.6" cy="136.4" r="34" fill="#dbeafe" stroke="#2563eb" stroke-width="2"/>
<text x="171.6" y="128.4" class="node-label">id 11</text>
<text x="171.6" y="143.4" class="node-label">input</text>
<circle cx="1028.4" cy="623.6" r="39" fill="#dcfce7" stroke="#16a34a" stroke-width="2"/>
<text x="1028.4" y="615.6" class="node-label">id 12</text>
<text x="1028.4" y="630.6" class="node-label">forward</text>
<text x="1028.4" y="645.6" class="node-label small">tanh</text>
<circle cx="1028.4" cy="380.0" r="39" fill="#dcfce7" stroke="#16a34a" stroke-width="2"/>
<text x="1028.4" y="372.0" class="node-label">id 13</text>
<text x="1028.4" y="387.0" class="node-label">backward</text>
<text x="1028.4" y="402.0" class="node-label small">tanh</text>
<circle cx="1028.4" cy="136.4" r="39" fill="#dcfce7" stroke="#16a34a" stroke-width="2"/>
<text x="1028.4" y="128.4" class="node-label">id 14</text>
<text x="1028.4" y="143.4" class="node-label">jump</text>
<text x="1028.4" y="158.4" class="node-label small">tanh</text>
<line x1="90" y1="726" x2="150" y2="726" stroke="#2166ac" stroke-width="4"/>
<text x="160" y="731" class="meta">positive weight</text>
<line x1="330" y1="726" x2="390" y2="726" stroke="#b2182b" stroke-width="4"/>
<text x="400" y="731" class="meta">negative weight</text>
<line x1="570" y1="726" x2="630" y2="726" stroke="#9aa5b1" stroke-width="2" stroke-dasharray="6 6" opacity="0.5"/>
<text x="640" y="731" class="meta">disabled connection</text>
</svg>